<svg xmlns="http://www.w3.org/2000/svg" viewBox="0 0 192.06 136.476"><path d="M47.166 82.509a31.88 31.88 0 0 0-24.259-16.612C10.15 64.207-9.185 45.825 4.954 22.736 27.287-13.734 107.971.437 130.538 18.47s43.826 56.836-4.952 81.342c-13.278 6.672-22.39.686-47.52 33.459a7.946 7.946 0 0 1-9.204 2.66c-5.588-2.26-13.015-11.165-17.725-40.1a35.068 35.068 0 0 0-3.971-13.323z" fill="#e2eec7"/><path d="M34.197 99.396c-.74-.355-1.539-.7-2.323-1.033l.443-20.392c1.16-.977 2.185-1.812 3.19-2.595l.002-.003c2.076-1.633 8.798-7.49 8.12-14.298-.447-4.484-3.955-8.416-10.431-11.688-.085-.042-.17-.086-.258-.131l.153-7.125a4.301 4.301 0 0 0 3.235-.986 3.821 3.821 0 0 0 1.188-2.578 8.14 8.14 0 0 0-4.192-7.34l.165-7.551v-.005a3.427 3.427 0 0 0-3.426-3.488H25.54a3.411 3.411 0 0 0-3.415 3.493l.124 5.844a18.206 18.206 0 0 0-9.77 3.448 8.373 8.373 0 0 0-3.14 5.995 8.503 8.503 0 0 0 2.357 6.454 41.113 41.113 0 0 0 11.057 7.592l.479 22.028a524.91 524.91 0 0 0-5.446 4.624c-.269.257-6.572 6.376-5.404 12.82.659 3.637 3.54 6.572 8.567 8.728.369.156.78.325 1.225.507.508.208 1.068.44 1.645.685l.35 16.343a105.673 105.673 0 0 1-11.068 4.754.865.865 0 0 0 .301 1.676.983.983 0 0 0 .12-.008 77.677 77.677 0 0 0 10.73-2.427l.13 5.938a3.421 3.421 0 0 0 6.84-.002l.187-8.617c6.545-3.054 10.118-6.782 10.604-11.09.43-3.746-2.054-6.787-7.816-9.572zm-5.013 16.262c-.241.232-.483.457-.716.662l-.055.038-.016.01-.133.09-.068.043a19.646 19.646 0 0 1-.555.348l-.132.08c-.148.09-.311.186-.495.292l-.065.037q-.248.143-.538.305l-.199.11-.331.179-.703-32.794.114-.143c.277-.346.572-.7.892-1.064l.092-.106c.346-.39.722-.793 1.116-1.203l.247-.255c.404-.413.826-.834 1.277-1.266l.118-.111c.425-.405.874-.82 1.34-1.24l.18-.162-.773 35.546c-.122.127-.245.253-.37.377-.076.075-.151.153-.227.227zm2.49-8.065a4.327 4.327 0 0 1 .763 2.181 5.407 5.407 0 0 1-.876 3.011zM30.26 69.109l-.528.452-.262.223-.808.682-.106.09-1.108.93-2.517 2.116-.428-19.717.006.003-.189-8.373-.138-6.378.084.05.076.046c.208.125.44.257.693.395l.136.073a20.351 20.351 0 0 0 2.103.962c.053.02.107.04.16.062.388.148.797.294 1.234.434l.114.037c.472.149.97.29 1.5.42.086.022.179.04.267.062.269.063.534.129.817.186l-.14 6.5-.001-.002-.216 9.886.005.004-.223 10.393-.251.22c-.092.08-.182.16-.28.244zm-7.82-30.472l.11 5.008c-2.334-1.46-3.112-2.624-3.005-3.275.09-.55.913-1.253 2.896-1.733zm10.267 21.416c1.937 2.508 1.257 4.11.933 4.859a8.365 8.365 0 0 1-1.08 1.95zM24.33 22.422a1.677 1.677 0 0 1 1.209-.508h4.523a1.697 1.697 0 0 1 1.696 1.728l-.147 6.758c-.07-.026-.148-.043-.217-.068q-.478-.17-.989-.31c-.115-.033-.228-.067-.347-.097-.44-.11-.897-.205-1.373-.281-.104-.017-.213-.028-.319-.043q-.588-.085-1.21-.138a25.347 25.347 0 0 0-1.907-.086c-.06 0-.115-.006-.176-.006l-.057.001c-.062 0-.127.003-.19.004-.28.002-.561.005-.85.015l-.122-5.755a1.668 1.668 0 0 1 .476-1.214zM12.942 44.216a6.765 6.765 0 0 1-1.877-5.138 6.55 6.55 0 0 1 2.49-4.755c2.293-1.818 5.523-2.877 9.603-3.15l.533-.037c.465-.023.917-.034 1.358-.035.039 0 .075.002.114.003.644.002 1.26.029 1.85.078.054.005.11.007.163.012.579.053 1.127.134 1.654.233l.256.05a13.215 13.215 0 0 1 1.446.381c.07.023.136.05.204.073a10.172 10.172 0 0 1 1.314.553 6.467 6.467 0 0 1 3.739 6.003 2.172 2.172 0 0 1-.632 1.383 2.788 2.788 0 0 1-2.139.536l-.013-.002-.608-.106c-5.57-.972-8.348-3.367-8.373-3.389l-.368-.242-.38.039-.042.01-.095.01c-4.036.684-5.11 2.206-5.3 3.364-.293 1.777 1.306 3.659 4.756 5.596l.116 5.362a37.972 37.972 0 0 1-9.769-6.832zm9.888 55.899c-.437-.18-.843-.347-1.203-.498-4.453-1.91-6.991-4.412-7.542-7.439-1.005-5.527 4.839-11.21 4.863-11.236a646.4 646.4 0 0 1 4.332-3.687v.012l1.386-1.173c1.544-1.31 2.825-2.384 3.895-3.283l1.219-1.023c1.025-.863 1.83-1.547 2.45-2.104l.028-.026.248-.222v-.01a9.492 9.492 0 0 0 2.722-3.824c.43-.994 1.718-3.98-2.466-8.078l.137-6.345c5.604 2.93 8.635 6.315 9.009 10.068.59 5.93-5.565 11.27-7.468 12.765a101.29 101.29 0 0 0-2.073 1.666v-.032L30.9 76.903a51.148 51.148 0 0 0-7.279 7.332l-.186.241v.015c-2.13 2.841-3.015 5.269-2.68 7.405a6.7 6.7 0 0 0 2.931 4.338l.092 4.27-.947-.389zm-.367-8.486a6.595 6.595 0 0 1 1.037-4.087l.136 6.352a4.23 4.23 0 0 1-1.173-2.265zm7.029 37.006a1.691 1.691 0 0 1-3.381.002l-.14-6.445c.099-.033.19-.067.286-.1q.665-.226 1.304-.46c.154-.055.31-.11.462-.167.558-.209 1.104-.42 1.63-.635l.01-.004zm10.802-19.863v.002c-.426 3.769-3.822 7.113-10.09 9.939q-.6.267-1.24.53a58.659 58.659 0 0 1-4.138 1.505l-.032.01c-.714.228-1.422.442-2.114.64q.839-.393 1.53-.736v.002l.251-.128c.353-.176.684-.344.977-.496a32.596 32.596 0 0 0 4.1-2.363 23.293 23.293 0 0 0 1.736-1.674l.008-.01.214-.23v-.017c1.864-2.096 2.769-4.133 2.67-6.06a6.917 6.917 0 0 0-2.43-4.668l.104-4.79c.55.24 1.097.483 1.606.728 6.577 3.178 7.058 5.983 6.848 7.816z" fill="#bd922d"/><path d="M68.051 64.356l2.056 2.03a9.325 9.325 0 1 1-.257-12.72l-2.082 2.031a6.184 6.184 0 0 0-4.573-1.978c-3.546 0-5.987 2.954-5.987 6.423 0 3.47 2.44 6.424 5.987 6.424a6.4 6.4 0 0 0 4.856-2.21zM72.47 49.71h3.084v19.426h-3.083zM84.6 51.303l-4.498 4.317-1.978-1.876 4.394-4.472zm-5.268 5.961h3.083v11.872h-3.083zM97.139 61.247v7.889h-3.084v-7.119a2.248 2.248 0 0 0-2.415-2.492 3.005 3.005 0 0 0-2.416 1.568v8.043h-3.083v-12.18h2.878v1.772a4.209 4.209 0 0 1 3.649-2.08 4.364 4.364 0 0 1 4.47 4.599zM102.252 50.994a2.03 2.03 0 1 1-2.03 2.03 2.018 2.018 0 0 1 2.03-2.03zm-1.542 5.962h3.084v12.18h-3.084zM116.102 65.076l2.03 2.056a6.591 6.591 0 0 1-5.036 2.312 6.4 6.4 0 1 1 0-12.797 6.529 6.529 0 0 1 4.985 2.262l-2.133 1.901a3.786 3.786 0 0 0-2.852-1.285 3.522 3.522 0 0 0 0 7.041 3.596 3.596 0 0 0 3.006-1.49zM131.777 56.956v12.18h-2.852v-1.593a4.21 4.21 0 0 1-3.675 1.901 6.416 6.416 0 0 1 0-12.797 4.363 4.363 0 0 1 3.675 1.902v-1.593zm-3.083 4.265a3.41 3.41 0 0 0-2.878-1.696 3.524 3.524 0 0 0 0 7.041 3.41 3.41 0 0 0 2.878-1.696zM148.968 69.752l-8.043-18.604h3.366l4.78 11.538 4.728-11.538h3.211zM160.223 50.994a2.03 2.03 0 1 1-2.03 2.03 2.018 2.018 0 0 1 2.03-2.03zm-1.542 5.962h3.083v12.18h-3.083zM176.977 69.136h-2.853v-1.593a4.21 4.21 0 0 1-3.674 1.901 6.416 6.416 0 0 1 0-12.797 4.345 4.345 0 0 1 3.443 1.593v-8.53h3.084zm-3.084-7.915a3.376 3.376 0 0 0-2.904-1.696 3.525 3.525 0 0 0 0 7.041 3.376 3.376 0 0 0 2.904-1.696zM192.06 56.956v12.18h-2.852v-1.593a4.21 4.21 0 0 1-3.675 1.901 6.416 6.416 0 0 1 0-12.797 4.363 4.363 0 0 1 3.675 1.902v-1.593zm-3.083 4.265a3.41 3.41 0 0 0-2.878-1.696 3.524 3.524 0 0 0 0 7.041 3.41 3.41 0 0 0 2.878-1.696zM57.675 82.76c-1.558-.544-3.312-1.391-3.312-3.357a3.217 3.217 0 0 1 3.463-2.994 4.55 4.55 0 0 1 3.448 1.679l-1.255 1.24a3.053 3.053 0 0 0-2.193-1.195 1.46 1.46 0 0 0-1.618 1.27c0 .923.832 1.21 2.283 1.754 1.619.605 2.964 1.331 2.964 3.251s-1.694 2.95-3.69 2.95a4.626 4.626 0 0 1-3.87-2.163l1.36-1.15a3.231 3.231 0 0 0 2.51 1.589c.908 0 1.846-.364 1.846-1.226 0-.892-.681-1.209-1.936-1.647zM66.396 76.59h1.845l4.113 10.586h-1.83l-.967-2.51H65.08l-.968 2.51h-1.83zm-.665 6.412h3.175l-1.587-4.128zM79.91 76.59h1.815v6.745a4.083 4.083 0 0 1-8.165 0V76.59h1.814v6.517c0 1.512.756 2.526 2.268 2.526 1.497 0 2.269-1.014 2.269-2.526zm.152-3.205l-2.646 2.54-1.165-1.104 2.586-2.63zM92.609 81.883a5.067 5.067 0 0 1-5.232 5.293h-3.418V76.59h3.418a5.067 5.067 0 0 1 5.232 5.292zm-1.845 0a3.363 3.363 0 0 0-3.357-3.569h-1.633v7.138h1.633a3.372 3.372 0 0 0 3.357-3.57zM96.052 80.885h4.234v1.724h-4.234v2.843h4.688v1.724h-6.502V76.59h6.41v1.723h-4.596zM108.613 76.59l3.447 5.323 3.448-5.322h1.678v10.585h-1.814v-7.108l-3.312 5.036-3.311-5.036v7.108h-1.815V76.59zM121.234 80.885h4.234v1.724h-4.234v2.843h4.688v1.724h-6.502V76.59h6.41v1.723h-4.596zM129.305 76.59l5.293 7.289V76.59h1.815v10.585h-1.633l-5.293-7.274v7.274h-1.814V76.59zM140.657 78.314h-2.918v-1.723h7.651v1.723h-2.918v8.862h-1.815zM149.243 76.59h1.846l4.112 10.586h-1.83l-.967-2.51h-4.476l-.968 2.51h-1.83zm-.665 6.412h3.176l-1.588-4.128zM156.407 76.59h1.814v8.862h4.507v1.724h-6.321z" fill="#205a2d"/></svg>