<svg xmlns="http://www.w3.org/2000/svg" viewBox="0 0 192.06027 136.47626"><title>Asset 7</title><path d="M47.16571,82.50851A31.87936,31.87936,0,0,0,22.90725,65.897C10.14854,64.20757-9.18478,45.82455,4.95419,22.73575,27.28713-13.73371,107.97134.43716,130.53806,18.47108s43.82545,56.836-4.9517,81.34211c-13.27865,6.67134-22.39075.68575-47.52124,33.45885a7.9463,7.9463,0,0,1-9.203,2.66049c-5.58769-2.2605-13.015-11.16579-17.72526-40.1006A35.06843,35.06843,0,0,0,47.16571,82.50851Z" fill="#e2eec7"/><path d="M34.1965,99.39627c-.74023-.3548-1.53845-.69977-2.32263-1.03284l.443-20.39221c1.16-.97766,2.18494-1.81238,3.18921-2.59546l.00244-.00293C37.58517,73.74,44.30734,67.8826,43.62912,61.075,43.18234,56.5906,39.674,52.659,33.198,49.38748c-.08478-.0423-.17084-.08661-.25818-.13153l.1532-7.12518a4.301,4.301,0,0,0,3.23486-.98548,3.821,3.821,0,0,0,1.18848-2.57812,8.13925,8.13925,0,0,0-4.19245-7.33991l.1651-7.55169.00049-.00489a3.42736,3.42736,0,0,0-3.42676-3.4873H25.53976a3.411,3.411,0,0,0-3.41455,3.49219l.12384,5.84448a18.2055,18.2055,0,0,0-9.76983,3.44751,8.3731,8.3731,0,0,0-3.14063,5.99511A8.50275,8.50275,0,0,0,11.696,45.41678a41.11344,41.11344,0,0,0,11.0575,7.59265L23.2316,75.037c-1.54212,1.28765-3.31867,2.79773-5.44525,4.6239-.269.25683-6.57227,6.376-5.40479,12.82031.65918,3.63672,3.54053,6.57227,8.56787,8.72754.36817.15625.78027.32519,1.22412.50683.50861.20887,1.0683.44086,1.64527.68506l.35064,16.34351a105.67258,105.67258,0,0,1-11.06817,4.75366.86508.86508,0,0,0,.30078,1.67578.98316.98316,0,0,0,.11914-.00781,77.67738,77.67738,0,0,0,10.73157-2.42664l.12829,5.93836a3.42124,3.42124,0,0,0,6.84033-.00293l.18805-8.61615c6.54456-3.0542,10.11731-6.78278,10.60395-11.09088C42.44211,105.22244,39.95871,102.18142,34.1965,99.39627Zm-5.01282,16.26141c-.24115.23249-.48278.4574-.71569.66242l-.05463.03759-.01654.01111c-.03156.02137-.07874.05274-.13269.08826l-.06812.04431c-.05066.033-.11279.07251-.17834.11414-.03766.02392-.0763.04828-.119.075-.07629.04767-.16577.10242-.25812.15869-.04431.027-.08392.05145-.13189.08032-.14759.08881-.31079.18543-.49421.29163l-.06524.03717q-.24783.14282-.53864.30487c-.0628.035-.13275.07294-.19861.10919-.10437.0575-.21893.119-.331.17957l-.70343-32.79425c.03711-.04706.07617-.095.11414-.14234.27722-.34637.57245-.70013.89233-1.064.03149-.03583.05969-.07032.09155-.10627.34613-.3905.72211-.793,1.11609-1.20263q.122-.1269.24726-.255c.404-.41376.82574-.83447,1.27673-1.26642.03833-.03668.08-.0747.11865-.11151.42493-.40478.874-.81878,1.33911-1.23877.06012-.05432.11957-.1084.18042-.1629l-.7727,35.546c-.12244.12738-.2453.25342-.37018.37732C29.33493,115.50644,29.26,115.58413,29.18368,115.65768Zm2.48963-8.06476a4.32734,4.32734,0,0,1,.76391,2.18128,5.40662,5.40662,0,0,1-.8767,3.01086Zm-1.4126-38.484c-.1651.14239-.34277.29431-.52759.45166-.08777.07476-.17022.14532-.26257.22369q-.37774.32034-.8075.68188l-.1062.08954c-.34411.28943-.71161.59784-1.10791.93042q-1.09826.92166-2.5166,2.11609l-.42877-19.71692.00641.00318-.18848-8.37317-.13867-6.37781c.02563.01593.058.03387.08441.05005.02417.01477.051.03.07587.045.20788.1258.44031.25788.693.39514.04572.02478.08869.0484.13587.07343a20.35118,20.35118,0,0,0,2.103.96185c.05292.02075.10688.0409.16071.06159.38684.1488.79663.294,1.2337.43414.03882.01251.07459.02533.11383.03766.47168.14856.97046.28961,1.49988.42053.08618.02142.17865.03986.26642.06073.26916.0636.53418.12891.81787.1864l-.13959,6.49909-.002-.001-.21533,9.88574.005.00464-.2232,10.39215c-.08222.07251-.16309.144-.25141.221C30.44937,68.94522,30.359,69.0242,30.26071,69.10892ZM22.44156,38.63717l.1087,5.00769c-2.33331-1.45941-3.11157-2.62426-3.00464-3.275C19.6362,39.82034,20.4595,39.11715,22.44156,38.63717ZM32.70773,60.05276c1.93683,2.50782,1.25684,4.11023.9336,4.85913a8.36536,8.36536,0,0,1-1.0799,1.94959Zm-8.37695-37.6311a1.67723,1.67723,0,0,1,1.209-.50781h4.52295A1.69748,1.69748,0,0,1,31.759,23.64236l-.14746,6.75781c-.06879-.02594-.14709-.04327-.21692-.06823q-.47745-.17075-.98822-.31085c-.11584-.0318-.22876-.06629-.34711-.09577-.44091-.10962-.89721-.20489-1.3731-.2818-.1037-.01678-.21357-.02759-.31885-.04278q-.58814-.08487-1.21-.13733c-.16-.01349-.32092-.02606-.48425-.03632-.46161-.029-.93494-.04675-1.42292-.05-.0603-.00036-.11511-.00616-.17578-.00616-.01886,0-.03882.001-.05774.0011-.06195.00012-.12671.003-.189.00354-.28064.00238-.56171.00525-.85089.01587l-.12208-5.75586A1.6681,1.6681,0,0,1,24.33078,22.42166ZM12.94211,44.2156a6.76513,6.76513,0,0,1-1.877-5.13769A6.55082,6.55082,0,0,1,13.55441,34.323c2.29352-1.81787,5.52344-2.87671,9.60309-3.15009l.53314-.03741c.4654-.02277.91724-.03351,1.35822-.03418.03906-.00013.07562.00207.1145.00219.64386.002,1.25958.0293,1.85022.0788.05328.00452.10907.00665.16193.01154.57946.05328,1.12793.13372,1.65405.23333.086.01636.17187.0326.25641.05017a13.21525,13.21525,0,0,1,1.44641.381c.06958.02289.13544.049.20367.07293a10.17194,10.17194,0,0,1,1.31348.5528,6.46667,6.46667,0,0,1,3.73926,6.00293,2.17249,2.17249,0,0,1-.63135,1.38281,2.78837,2.78837,0,0,1-2.13916.53613l-.01337-.00225-.60772-.10614C26.82638,39.326,24.049,36.93142,24.02365,36.909l-.36768-.24218-.38037.03906-.04156.00958-.09467.01093c-4.03613.68359-5.11084,2.20605-5.30127,3.36328-.29248,1.77728,1.307,3.659,4.75647,5.59643l.1164,5.362A37.97175,37.97175,0,0,1,12.94211,44.2156ZM22.83029,100.115c-.4375-.17969-.84375-.34668-1.20312-.49805-4.45362-1.90918-6.99122-4.41211-7.542-7.43847C13.0798,86.65115,18.924,80.96756,18.948,80.94217c1.62024-1.38947,3.0498-2.60749,4.33178-3.6872l.00025.01239,1.38574-1.17383c1.54395-1.30859,2.8252-2.38378,3.89551-3.28222.44006-.36908.84192-.70636,1.21863-1.02338,1.02484-.86249,1.8294-1.5473,2.45031-2.10358l.02771-.02587.24817-.22217.00025-.01013a9.4917,9.4917,0,0,0,2.72143-3.82386c.43-.99469,1.71869-3.97986-2.46564-8.07867l.13636-6.34436c5.60437,2.9292,8.635,6.31439,9.009,10.06756.59082,5.92969-5.56494,11.26954-7.46729,12.76563-.6712.52368-1.35357,1.07269-2.07342,1.66528l.00067-.03149L30.89865,76.9031a51.14832,51.14832,0,0,0-7.27832,7.332l-.186.24121.00031.01428c-2.13086,2.84186-3.01556,5.26916-2.68048,7.40564a6.69952,6.69952,0,0,0,2.93115,4.33789l.09131,4.27051C23.44894,100.36892,23.13205,100.239,22.83029,100.115Zm-.36719-8.48633a6.59533,6.59533,0,0,1,1.037-4.08679l.13623,6.35242A4.22927,4.22927,0,0,1,22.4631,91.62869Zm7.02881,37.00586a1.69131,1.69131,0,0,1-3.38135.00293l-.13867-6.44531c.09778-.03272.1883-.06745.28528-.10041q.665-.22594,1.304-.45892c.15411-.05609.31-.11151.46179-.16815.55792-.20831,1.104-.41937,1.62915-.63477l.01025-.004Zm10.80225-19.8623-.00049.00195c-.42529,3.76855-3.82129,7.11328-10.08887,9.93847q-.60168.2677-1.241.52961c-1.278.52356-2.66424,1.028-4.13787,1.50555l-.03162.01032c-.71436.22827-1.42242.44207-2.11438.6391q.83909-.3924,1.5307-.73536l.00006.002.25055-.12738c.35291-.17615.684-.34406.977-.49665a32.59645,32.59645,0,0,0,4.1001-2.36328,23.2932,23.2932,0,0,0,1.73535-1.67383l.00855-.00982.21362-.22943.00036-.01715c1.86353-2.09607,2.7685-4.13379,2.66907-6.061a6.91667,6.91667,0,0,0-2.43017-4.667l.10449-4.79c.55127.23926,1.09717.48242,1.60644.72754C40.02316,104.13357,40.50412,106.93924,40.29416,108.77225Z" fill="#bd922d"/><path d="M68.051,64.35623l2.05567,2.03027a9.32471,9.32471,0,1,1-.25684-12.71972l-2.08154,2.03027a6.18411,6.18411,0,0,0-4.57373-1.97852c-3.5459,0-5.98682,2.95411-5.98682,6.42383,0,3.46875,2.44092,6.42383,5.98682,6.42383A6.40065,6.40065,0,0,0,68.051,64.35623Z" fill="#205a2d"/><path d="M72.47092,49.70975h3.08349V69.13553H72.47092Z" fill="#205a2d"/><path d="M84.59933,51.30252,80.10226,55.6199l-1.97851-1.876,4.394-4.47167Zm-5.26757,5.96191h3.08349v11.8711H79.33176Z" fill="#205a2d"/><path d="M97.13888,61.24685v7.88868H94.05539V62.01736a2.24776,2.24776,0,0,0-2.41553-2.49219,3.00536,3.00536,0,0,0-2.41553,1.56739v8.043h-3.083V56.95584h2.87793V58.7283a4.20857,4.20857,0,0,1,3.64843-2.081A4.36374,4.36374,0,0,1,97.13888,61.24685Z" fill="#205a2d"/><path d="M102.25217,50.99392a2.03028,2.03028,0,1,1-2.02979,2.03028A2.018,2.018,0,0,1,102.25217,50.99392Zm-1.542,5.96192h3.0835V69.13553h-3.0835Z" fill="#205a2d"/><path d="M116.10226,65.076l2.02979,2.05566a6.59131,6.59131,0,0,1-5.03613,2.3125,6.40024,6.40024,0,1,1,0-12.79687,6.52862,6.52862,0,0,1,4.98486,2.26171L115.948,60.81033a3.78552,3.78552,0,0,0-2.852-1.28516,3.52206,3.52206,0,0,0,0,7.041A3.59615,3.59615,0,0,0,116.10226,65.076Z" fill="#205a2d"/><path d="M131.77707,56.95584V69.13553h-2.85254V67.54275a4.21,4.21,0,0,1-3.67432,1.90137,6.41645,6.41645,0,0,1,0-12.79687,4.36341,4.36341,0,0,1,3.67432,1.90136V56.95584Zm-3.0835,4.26562a3.40938,3.40938,0,0,0-2.87793-1.69629,3.524,3.524,0,0,0,0,7.041,3.40938,3.40938,0,0,0,2.87793-1.69629Z" fill="#205a2d"/><path d="M148.968,69.75174l-8.043-18.60352h3.36621l4.7793,11.53809,4.728-11.53809h3.21192Z" fill="#205a2d"/><path d="M160.22287,50.99392a2.03028,2.03028,0,1,1-2.02979,2.03028A2.018,2.018,0,0,1,160.22287,50.99392Zm-1.542,5.96192h3.08349V69.13553h-3.08349Z" fill="#205a2d"/><path d="M176.97678,69.13553h-2.85254V67.54275a4.21006,4.21006,0,0,1-3.67432,1.90137,6.41648,6.41648,0,0,1,0-12.79687A4.34512,4.34512,0,0,1,173.89328,58.24V49.70975h3.0835Zm-3.0835-7.91407a3.37609,3.37609,0,0,0-2.90381-1.69629,3.52537,3.52537,0,0,0,0,7.041,3.37609,3.37609,0,0,0,2.90381-1.69629Z" fill="#205a2d"/><path d="M192.06027,56.95584V69.13553h-2.85254V67.54275a4.21,4.21,0,0,1-3.67431,1.90137,6.41644,6.41644,0,0,1,0-12.79687,4.3634,4.3634,0,0,1,3.67431,1.90136V56.95584Zm-3.08349,4.26562a3.4094,3.4094,0,0,0-2.87793-1.69629,3.524,3.524,0,0,0,0,7.041,3.4094,3.4094,0,0,0,2.87793-1.69629Z" fill="#205a2d"/><path d="M57.675,82.76053c-1.55762-.54493-3.31153-1.39161-3.31153-3.35743A3.21688,3.21688,0,0,1,57.8259,76.409a4.5492,4.5492,0,0,1,3.44775,1.67871l-1.25488,1.24024A3.05283,3.05283,0,0,0,57.8259,78.1326a1.46076,1.46076,0,0,0-1.61768,1.2705c0,.92286.83154,1.21,2.2832,1.75391,1.61817.60547,2.96387,1.33106,2.96387,3.251,0,1.9209-1.69385,2.94922-3.68945,2.94922a4.62638,4.62638,0,0,1-3.8711-2.16211l1.36084-1.14942a3.23114,3.23114,0,0,0,2.51026,1.58789c.90722,0,1.84472-.36328,1.84472-1.22558C59.61056,83.51639,58.9299,83.199,57.675,82.76053Z" fill="#205a2d"/><path d="M66.39621,76.5906h1.84473l4.11328,10.585H70.52463l-.96778-2.50977H65.08078L64.113,87.17557H62.28342Zm-.665,6.41114h3.17529l-1.58789-4.12793Z" fill="#205a2d"/><path d="M79.91086,76.5906h1.81445v6.74415a4.08322,4.08322,0,0,1-8.16553,0V76.5906h1.81446v6.51758c0,1.51172.75586,2.52539,2.26806,2.52539,1.49707,0,2.26856-1.01367,2.26856-2.52539Zm.15088-3.206-2.646,2.541-1.16455-1.1045,2.58594-2.63086Z" fill="#205a2d"/><path d="M92.60861,81.8826a5.067,5.067,0,0,1-5.23193,5.293H83.9592V76.5906h3.41748A5.06676,5.06676,0,0,1,92.60861,81.8826Zm-1.84473,0A3.36274,3.36274,0,0,0,87.407,78.31424h-1.6333v7.13769H87.407A3.37178,3.37178,0,0,0,90.76388,81.8826Z" fill="#205a2d"/><path d="M96.052,80.88455h4.23389v1.72461H96.052v2.84277h4.6875v1.72364H94.23752V76.5906h6.41113v1.72364H96.052Z" fill="#205a2d"/><path d="M108.61252,76.5906l3.44775,5.32227L115.508,76.5906h1.67822v10.585h-1.81446V80.06814l-3.31152,5.03614-3.31152-5.03614v7.10743h-1.81446V76.5906Z" fill="#205a2d"/><path d="M121.2341,80.88455H125.468v1.72461H121.2341v2.84277h4.6875v1.72364h-6.50195V76.5906h6.41113v1.72364H121.2341Z" fill="#205a2d"/><path d="M129.30539,76.5906l5.29248,7.28809V76.5906h1.81494v10.585h-1.6333L129.487,79.90213v7.27344h-1.81445V76.5906Z" fill="#205a2d"/><path d="M140.65744,78.31424H137.739V76.5906h7.65137v1.72364h-2.91846v8.86133h-1.81445Z" fill="#205a2d"/><path d="M149.24338,76.5906h1.84521l4.11279,10.585h-1.82959L152.404,84.6658H147.928l-.96778,2.50977h-1.82959Zm-.665,6.41114h3.17529l-1.58789-4.12793Z" fill="#205a2d"/><path d="M156.407,76.5906h1.81445v8.86133h4.50635v1.72364H156.407Z" fill="#205a2d"/></svg>